<svg id="Calque_1" data-name="Calque 1" xmlns="http://www.w3.org/2000/svg" viewBox="0 0 38.04 53.26"><defs><style>.cls-1{fill:#294fff;}.cls-2{fill:#2548e6;}</style></defs><path class="cls-1" d="M19,.32A18.24,18.24,0,0,0,.76,18.56a17.72,17.72,0,0,0,2.75,9.58L17.8,51.53a1.51,1.51,0,0,0,1,.71,1.53,1.53,0,0,0,1.56-.71L34.71,28a18.06,18.06,0,0,0,2.57-9.32A18.29,18.29,0,0,0,19,.32ZM19,27.7a9.14,9.14,0,1,1,9.14-9.14A9.13,9.13,0,0,1,19,27.7Z"/><path class="cls-2" d="M19,.32V9.46a9.14,9.14,0,0,1,0,18.28v24.5a1.42,1.42,0,0,0,1.33-.75L34.67,27.92A18.26,18.26,0,0,0,19,.32Z"/></svg>